<svg id="visual" viewBox="0 0 960 540" width="960" height="540" xmlns="http://www.w3.org/2000/svg" xmlns:xlink="http://www.w3.org/1999/xlink" version="1.1"><rect x="0" y="0" width="960" height="540" fill="#1d1d1d"></rect><defs><linearGradient id="grad1_0" x1="43.8%" y1="0%" x2="100%" y2="100%"><stop offset="14.444444444444446%" stop-color="#005b41" stop-opacity="1"></stop><stop offset="85.55555555555554%" stop-color="#005b41" stop-opacity="1"></stop></linearGradient></defs><defs><linearGradient id="grad1_1" x1="43.8%" y1="0%" x2="100%" y2="100%"><stop offset="14.444444444444446%" stop-color="#005b41" stop-opacity="1"></stop><stop offset="85.55555555555554%" stop-color="#0e523c" stop-opacity="1"></stop></linearGradient></defs><defs><linearGradient id="grad1_2" x1="43.8%" y1="0%" x2="100%" y2="100%"><stop offset="14.444444444444446%" stop-color="#164936" stop-opacity="1"></stop><stop offset="85.55555555555554%" stop-color="#0e523c" stop-opacity="1"></stop></linearGradient></defs><defs><linearGradient id="grad1_3" x1="43.8%" y1="0%" x2="100%" y2="100%"><stop offset="14.444444444444446%" stop-color="#164936" stop-opacity="1"></stop><stop offset="85.55555555555554%" stop-color="#1a4031" stop-opacity="1"></stop></linearGradient></defs><defs><linearGradient id="grad1_4" x1="43.8%" y1="0%" x2="100%" y2="100%"><stop offset="14.444444444444446%" stop-color="#1c372c" stop-opacity="1"></stop><stop offset="85.55555555555554%" stop-color="#1a4031" stop-opacity="1"></stop></linearGradient></defs><defs><linearGradient id="grad1_5" x1="43.8%" y1="0%" x2="100%" y2="100%"><stop offset="14.444444444444446%" stop-color="#1c372c" stop-opacity="1"></stop><stop offset="85.55555555555554%" stop-color="#1e2e27" stop-opacity="1"></stop></linearGradient></defs><defs><linearGradient id="grad1_6" x1="43.8%" y1="0%" x2="100%" y2="100%"><stop offset="14.444444444444446%" stop-color="#1e2522" stop-opacity="1"></stop><stop offset="85.55555555555554%" stop-color="#1e2e27" stop-opacity="1"></stop></linearGradient></defs><defs><linearGradient id="grad1_7" x1="43.8%" y1="0%" x2="100%" y2="100%"><stop offset="14.444444444444446%" stop-color="#1e2522" stop-opacity="1"></stop><stop offset="85.55555555555554%" stop-color="#1d1d1d" stop-opacity="1"></stop></linearGradient></defs><defs><linearGradient id="grad2_0" x1="0%" y1="0%" x2="56.3%" y2="100%"><stop offset="14.444444444444446%" stop-color="#005b41" stop-opacity="1"></stop><stop offset="85.55555555555554%" stop-color="#005b41" stop-opacity="1"></stop></linearGradient></defs><defs><linearGradient id="grad2_1" x1="0%" y1="0%" x2="56.3%" y2="100%"><stop offset="14.444444444444446%" stop-color="#0e523c" stop-opacity="1"></stop><stop offset="85.55555555555554%" stop-color="#005b41" stop-opacity="1"></stop></linearGradient></defs><defs><linearGradient id="grad2_2" x1="0%" y1="0%" x2="56.3%" y2="100%"><stop offset="14.444444444444446%" stop-color="#0e523c" stop-opacity="1"></stop><stop offset="85.55555555555554%" stop-color="#164936" stop-opacity="1"></stop></linearGradient></defs><defs><linearGradient id="grad2_3" x1="0%" y1="0%" x2="56.3%" y2="100%"><stop offset="14.444444444444446%" stop-color="#1a4031" stop-opacity="1"></stop><stop offset="85.55555555555554%" stop-color="#164936" stop-opacity="1"></stop></linearGradient></defs><defs><linearGradient id="grad2_4" x1="0%" y1="0%" x2="56.3%" y2="100%"><stop offset="14.444444444444446%" stop-color="#1a4031" stop-opacity="1"></stop><stop offset="85.55555555555554%" stop-color="#1c372c" stop-opacity="1"></stop></linearGradient></defs><defs><linearGradient id="grad2_5" x1="0%" y1="0%" x2="56.3%" y2="100%"><stop offset="14.444444444444446%" stop-color="#1e2e27" stop-opacity="1"></stop><stop offset="85.55555555555554%" stop-color="#1c372c" stop-opacity="1"></stop></linearGradient></defs><defs><linearGradient id="grad2_6" x1="0%" y1="0%" x2="56.3%" y2="100%"><stop offset="14.444444444444446%" stop-color="#1e2e27" stop-opacity="1"></stop><stop offset="85.55555555555554%" stop-color="#1e2522" stop-opacity="1"></stop></linearGradient></defs><defs><linearGradient id="grad2_7" x1="0%" y1="0%" x2="56.3%" y2="100%"><stop offset="14.444444444444446%" stop-color="#1d1d1d" stop-opacity="1"></stop><stop offset="85.55555555555554%" stop-color="#1e2522" stop-opacity="1"></stop></linearGradient></defs><g transform="translate(960, 0)"><path d="M0 486C-36.4 459 -72.9 431.9 -111.6 416.3C-150.2 400.7 -191.2 396.6 -215.5 373.3C-239.8 350 -247.6 307.5 -287.8 287.8C-328 268.1 -400.8 271.1 -420.9 243C-441 214.9 -408.4 155.7 -410.5 110C-412.6 64.3 -449.3 32.2 -486 0L0 0Z" fill="#1d211f"></path><path d="M0 425.3C-31.9 401.6 -63.8 377.9 -97.6 364.3C-131.5 350.6 -167.3 347 -188.6 326.6C-209.9 306.2 -216.6 269.1 -251.8 251.8C-287 234.6 -350.7 237.2 -368.3 212.6C-385.9 188 -357.4 136.2 -359.2 96.2C-361 56.3 -393.1 28.1 -425.2 0L0 0Z" fill="#1e2a24"></path><path d="M0 364.5C-27.3 344.2 -54.7 323.9 -83.7 312.2C-112.7 300.5 -143.4 297.4 -161.6 279.9C-179.9 262.5 -185.7 230.6 -215.8 215.8C-246 201.1 -300.6 203.3 -315.7 182.3C-330.7 161.2 -306.3 116.8 -307.9 82.5C-309.4 48.2 -337 24.1 -364.5 0L0 0Z" fill="#1d3229"></path><path d="M0 303.8C-22.8 286.8 -45.5 269.9 -69.7 260.2C-93.9 250.4 -119.5 247.8 -134.7 233.3C-149.9 218.7 -154.7 192.2 -179.9 179.9C-205 167.5 -250.5 169.4 -263.1 151.9C-275.6 134.3 -255.3 97.3 -256.6 68.7C-257.9 40.2 -280.8 20.1 -303.7 0L0 0Z" fill="#1b3b2f"></path><path d="M0 243C-18.2 229.5 -36.4 216 -55.8 208.2C-75.1 200.4 -95.6 198.3 -107.7 186.6C-119.9 175 -123.8 153.8 -143.9 143.9C-164 134 -200.4 135.5 -210.4 121.5C-220.5 107.5 -204.2 77.8 -205.3 55C-206.3 32.2 -224.6 16.1 -243 0L0 0Z" fill="#184434"></path><path d="M0 182.3C-13.7 172.1 -27.3 162 -41.8 156.1C-56.3 150.3 -71.7 148.7 -80.8 140C-89.9 131.2 -92.8 115.3 -107.9 107.9C-123 100.5 -150.3 101.7 -157.8 91.1C-165.4 80.6 -153.2 58.4 -153.9 41.2C-154.7 24.1 -168.5 12.1 -182.2 0L0 0Z" fill="#134d39"></path><path d="M0 121.5C-9.1 114.7 -18.2 108 -27.9 104.1C-37.6 100.2 -47.8 99.1 -53.9 93.3C-60 87.5 -61.9 76.9 -71.9 71.9C-82 67 -100.2 67.8 -105.2 60.8C-110.2 53.7 -102.1 38.9 -102.6 27.5C-103.1 16.1 -112.3 8 -121.5 0L0 0Z" fill="#08563e"></path><path d="M0 60.8C-4.6 57.4 -9.1 54 -13.9 52C-18.8 50.1 -23.9 49.6 -26.9 46.7C-30 43.7 -30.9 38.4 -36 36C-41 33.5 -50.1 33.9 -52.6 30.4C-55.1 26.9 -51.1 19.5 -51.3 13.7C-51.6 8 -56.2 4 -60.7 0L0 0Z" fill="#005b41"></path></g><g transform="translate(0, 540)"><path d="M0 -486C37.7 -457.1 75.3 -428.2 109.5 -408.6C143.6 -389 174.3 -378.8 215.5 -373.3C256.7 -367.7 308.5 -366.9 343.7 -343.7C378.9 -320.4 397.5 -274.7 400.1 -231C402.7 -187.3 389.2 -145.6 400.9 -107.4C412.5 -69.2 449.2 -34.6 486 0L0 0Z" fill="#1d211f"></path><path d="M0 -425.2C33 -399.9 65.9 -374.6 95.8 -357.5C125.7 -340.4 152.5 -331.4 188.6 -326.6C224.6 -321.8 269.9 -321 300.7 -300.7C331.5 -280.3 347.8 -240.4 350.1 -202.1C352.4 -163.9 340.6 -127.4 350.8 -94C360.9 -60.6 393.1 -30.3 425.3 0L0 0Z" fill="#1e2a24"></path><path d="M0 -364.5C28.2 -342.8 56.5 -321.1 82.1 -306.4C107.7 -291.8 130.7 -284.1 161.6 -279.9C192.5 -275.8 231.3 -275.2 257.7 -257.7C284.1 -240.3 298.1 -206 300.1 -173.3C302 -140.5 291.9 -109.2 300.6 -80.6C309.4 -51.9 336.9 -26 364.5 0L0 0Z" fill="#1d3229"></path><path d="M0 -303.7C23.5 -285.7 47.1 -267.6 68.4 -255.4C89.8 -243.1 108.9 -236.7 134.7 -233.3C160.4 -229.8 192.8 -229.3 214.8 -214.8C236.8 -200.2 248.4 -171.7 250.1 -144.4C251.7 -117.1 243.3 -91 250.5 -67.1C257.8 -43.3 280.8 -21.6 303.8 0L0 0Z" fill="#1b3b2f"></path><path d="M0 -243C18.8 -228.5 37.7 -214.1 54.7 -204.3C71.8 -194.5 87.1 -189.4 107.7 -186.6C128.4 -183.9 154.2 -183.5 171.8 -171.8C189.4 -160.2 198.8 -137.4 200.1 -115.5C201.3 -93.6 194.6 -72.8 200.4 -53.7C206.2 -34.6 224.6 -17.3 243 0L0 0Z" fill="#184434"></path><path d="M0 -182.2C14.1 -171.4 28.2 -160.6 41.1 -153.2C53.9 -145.9 65.4 -142 80.8 -140C96.3 -137.9 115.7 -137.6 128.9 -128.9C142.1 -120.1 149.1 -103 150 -86.6C151 -70.2 146 -54.6 150.3 -40.3C154.7 -26 168.5 -13 182.3 0L0 0Z" fill="#134d39"></path><path d="M0 -121.5C9.4 -114.3 18.8 -107 27.4 -102.1C35.9 -97.3 43.6 -94.7 53.9 -93.3C64.2 -91.9 77.1 -91.7 85.9 -85.9C94.7 -80.1 99.4 -68.7 100 -57.8C100.7 -46.8 97.3 -36.4 100.2 -26.9C103.1 -17.3 112.3 -8.7 121.5 0L0 0Z" fill="#08563e"></path><path d="M0 -60.7C4.7 -57.1 9.4 -53.5 13.7 -51.1C18 -48.6 21.8 -47.3 26.9 -46.7C32.1 -46 38.6 -45.9 43 -43C47.4 -40 49.7 -34.3 50 -28.9C50.3 -23.4 48.7 -18.2 50.1 -13.4C51.6 -8.7 56.2 -4.3 60.8 0L0 0Z" fill="#005b41"></path></g></svg>