<?xml version="1.0" encoding="utf-8"?>
<!-- Generator: Adobe Illustrator 16.0.3, SVG Export Plug-In . SVG Version: 6.00 Build 0)  -->
<!DOCTYPE svg PUBLIC "-//W3C//DTD SVG 1.1//EN" "http://www.w3.org/Graphics/SVG/1.1/DTD/svg11.dtd">
<svg version="1.1" id="Capa_1" xmlns="http://www.w3.org/2000/svg" xmlns:xlink="http://www.w3.org/1999/xlink" x="0px" y="0px"
	 width="1200px" height="310px" viewBox="0 0 1200 310" enable-background="new 0 0 1200 310" xml:space="preserve">
<g transform="translate(0.000000,310.000000) scale(0.100000,-0.100000)">
	<path fill="#005B41" d="M3418,2165c-7.998-17.002-7.998-32.002-1.006-47.002l10-21.997l17.002,26.001
		c11.006,15.996,15,35,11.006,47.998C3445.998,2197.002,3431.994,2195,3418,2165z"/>
	<path fill="#005B41" d="M3285.002,2157.002c15.996-58.003,55.996-97.002,100-97.002c17.998,0,17.998,2.002,1.992,42.998
		c-16.992,39.004-35,55-76.992,67.002C3280.998,2177.998,3278.996,2177.002,3285.002,2157.002z"/>
	<path fill="#005B41" d="M3523,2167.998c-12.998-5.996-25-20-29.004-30.996c-2.998-11.001-22.998-36.001-43.994-56.001
		c-40-38.003-60-88.999-60-156.001v-40l-25,30c-14.004,17.002-36.006,52.998-49.004,80c-25.996,56.001-47.002,77.998-90,95
		l-29.004,11.001l7.002-43.003c9.004-56.997,32.998-87.998,92.002-117.998c85-42.998,112.002-127.998,79.004-250
		c-20-73.999-19.004-110,5-170c10.996-27.002,17.998-50,15.996-50s-22.002,25-45,55c-52.998,70-109.004,111.001-179.004,131.001
		c-66.992,20-91.992,12.998-145-35c-22.998-21.001-51.992-42.002-64.99-45c-45-13.999-112.002-88.003-112.002-123.999
		c0-9.004,58.994-1.006,90.996,12.002c19.004,7.998,54.004,52.998,62.998,81.997c2.998,11.001,20,32.998,36.006,48.999
		c80,77.002,230.996-6.001,315-174.004c50-100,42.998-215-18.008-275.996c-25-25-48.994-35.996-111.992-49.004
		c-96.006-20.996-188.008-60.996-183.008-77.998c7.002-20,96.006-65,183.008-92.002c120.996-36.992,256.992-42.998,368.994-15.996
		c101.006,22.998,266.006,102.998,266.006,127.002c0,13.994-11.006,15-77.002,7.998c-160-17.002-220-7.998-244.004,35.996
		c-10,19.004-8.994,20,12.998,6.006c38.008-25,104.004-37.998,150-30l43.008,7.002L3698,1075.996
		c-162.002,41.006-244.004,211.006-174.004,359.004c27.998,59.004,87.998,120,109.004,112.002
		c8.994-2.998,22.998-31.006,32.002-62.002c18.994-67.998,77.998-139.004,95-115c23.994,37.002-9.004,147.998-51.006,170.996
		c-22.998,12.002-22.998,10.005-5-26.992c26.006-55,27.002-79.004,0-29.004c-33.994,65-52.002,85-77.998,85
		c-35.996,1.001,40.996,58.999,102.998,77.002c65,18.999,169.004,13.999,221.006-11.001c18.994-8.999,25.996-13.999,15-11.001
		c-10,2.998-40,7.998-65,11.001l-45,5l22.998-20c32.002-28.003,92.002-43.003,142.002-35c38.994,6.001,40,6.997,23.994,26.001
		c-35.996,38.999-87.002,61.997-152.998,66.997l-65.996,6.001l50,28.999c67.998,40,95,65,111.992,105
		c17.002,40,14.004,45-26.992,36.001c-43.008-8.999-85-47.998-104.004-93.999C3838,1715,3826.994,1707.998,3740.002,1685
		c-35-8.999-81.006-26.001-103.008-36.001c-46.992-25-57.998-17.998-30,18.999c17.002,22.002,28.008,27.002,67.002,28.003
		c37.002,1.997,54.004,7.998,76.006,28.999c36.992,35,28.994,48.999-25,42.002c-66.006-7.002-126.006-63.003-182.002-169.004
		c-25-47.998-50-85-54.004-82.998c-15,10-20,66.001-8.994,100c15,43.999,80.996,122.998,127.998,152.002
		c18.994,11.997,63.994,25.996,98.994,32.998c81.006,13.999,165,51.001,187.002,81.001c17.998,26.997,22.002,98.999,5,98.999
		c-20,0-75.996-67.002-82.002-100c-5-22.998-15-33.999-42.998-46.001c-20-7.998-47.002-13.999-60.996-11.997
		c-22.998,2.998-21.006,5,22.998,32.998c45.996,28.999,82.998,86.001,84.004,127.998c0,17.002-3.008,17.002-38.008-2.998
		c-42.998-23.999-61.992-50-71.992-95c-5-25-17.002-36.001-79.004-66.001c-84.004-41.997-142.998-95-175.996-158.999l-24.004-45
		l-0.996,32.002c0,52.998,46.992,183.999,90,246.997c52.998,78.003,72.998,150,50,186.001c-7.002,12.002-16.006,7.002-48.008-27.002
		c-41.992-42.998-53.994-78.999-42.998-120.996c7.002-24.004,7.998-22.002,29.004,25.996c12.998,29.004,23.994,52.002,27.002,52.002
		c13.994,0-29.004-97.998-61.006-140c-47.998-62.998-57.998-51.001-52.002,65c5,97.998,32.002,152.002,79.004,162.002
		c30,5.996,69.004,45,69.004,68.999C3570.002,2182.002,3553.996,2182.998,3523,2167.998z M3496.994,1105.996
		c5-32.998,2.002-40-35-75l-40-37.998L3443,959.004L3465.002,925L3428,952.998c-34.004,25-41.006,26.006-80,17.002
		c-24.004-5-67.998-9.004-97.998-9.004l-55,1.006l80,17.002c152.998,32.998,215.996,80.996,200.996,153.994
		c-5,22.002-2.998,27.998,4.004,21.006C3485.998,1147.998,3493,1127.002,3496.994,1105.996z M3378,1065c-20-17.002-45-25-92.998-30
		c-37.002-4.004-87.002-17.998-111.006-30c-23.994-12.002-45.996-19.004-48.994-15c-13.008,20.996,68.994,55.996,151.992,65
		c34.004,4.004,74.004,15,90,25C3405.002,1102.998,3411.994,1094.004,3378,1065z"/>
	<path fill="#005B41" d="M3663,2135c-35-15-56.006-46.001-51.006-76.001c3.008-18.999,4.004-18.999,38.008-1.997
		c23.994,12.998,36.992,27.998,42.998,51.997c3.994,18.003,7.002,35,5,36.001C3695.998,2147.002,3680.998,2142.002,3663,2135z"/>
	<path fill="#005B41" d="M3110.002,2080c8.994-17.998,40-40,53.994-40c2.998,0,6.006,8.999,6.006,20c0,20-27.002,40-55,40
		C3101.994,2100,3100.998,2096.001,3110.002,2080z"/>
	<path fill="#005B41" d="M3705.998,2048.999c-32.002-25-32.998-45-5-51.997c34.004-9.004,75.996,2.998,100,28.999l22.002,22.998
		L3795.998,2060C3755.998,2075,3735.998,2072.002,3705.998,2048.999z"/>
	<path fill="#005B41" d="M3081.994,1978.999c28.008-46.997,77.002-78.999,120-78.999c36.006,0,35,11.001-2.998,55
		c-37.002,42.002-50.996,50-102.998,58.999l-39.004,7.002L3081.994,1978.999z"/>
	<path fill="#005B41" d="M3618,2008.999c-10-5-17.998-18.999-17.998-30c0-16.001,2.998-17.998,18.994-10
		c10,6.001,21.006,20,24.004,31.001C3648.996,2022.002,3643,2023.999,3618,2008.999z"/>
	<path fill="#005B41" d="M2986.994,1980c6.006-22.998,40-50,61.006-50c17.002,0,5.996,40-16.006,57.998
		C3005.998,2007.998,2980.998,2002.998,2986.994,1980z"/>
	<path fill="#005B41" d="M3646.994,1945c-47.998-16.001-75.996-41.001-92.998-82.002c-7.998-17.998-13.994-33.999-13.994-36.997
		c0-7.002,65,11.001,87.998,25c20.996,12.998,68.994,95,60.996,103.999C3686.994,1957.002,3668,1952.002,3646.994,1945z"/>
	<path fill="#005B41" d="M2935.002,1906.001c-17.002-7.002-36.006-20-42.998-28.003C2878.996,1861.001,2858,1800,2865.998,1800
		c2.998,0,27.002,11.001,52.998,25c42.002,21.001,91.006,68.999,91.006,88.999C3010.002,1923.999,2965.998,1920,2935.002,1906.001z"
		/>
	<path fill="#005B41" d="M7956.994,1890c-53.994-42.998-23.994-121.001,47.002-122.998c69.004-2.002,107.998,73.999,62.002,120.996
		C8041.994,1912.998,7986.994,1913.999,7956.994,1890z"/>
	<path fill="#005B41" d="M3263,1860c5.996-46.001,27.002-73.999,70.996-97.002l29.004-15l-6.006,42.002
		c-5.996,46.001-26.992,73.999-70.996,97.002l-29.004,15L3263,1860z"/>
	<path fill="#005B41" d="M3123,1880c-29.004-12.002-29.004-16.001,2.002-36.001c20.996-13.999,30-13.999,55-3.999
		c35,13.999,37.998,25,10.996,40C3168,1892.002,3153,1892.002,3123,1880z"/>
	<path fill="#005B41" d="M7100.002,1565v-295h70h70v295v295h-70h-70V1565z"/>
	<path fill="#005B41" d="M2973,1820c-24.004-10-42.998-22.998-42.998-27.998c0-15,61.992-37.002,105.996-37.002
		c27.998,0,49.004,7.002,62.998,18.999c21.006,18.999,87.002,23.999,134.004,10c22.998-6.997,22.002,8.999-4.004,37.002
		c-12.998,15-18.994,17.998-15.996,7.998c3.994-12.998-2.998-17.998-31.006-22.998c-20-3.003-38.994-2.002-41.992,2.998
		c-8.008,12.002-69.004,31.001-99.004,31.001C3026.994,1840,2995.998,1831.001,2973,1820z"/>
	<path fill="#005B41" d="M4300.002,1550v-280h155h155v50v50h-85h-85v230v230h-70h-70V1550z"/>
	<path fill="#005B41" d="M7500.002,1550v-280h70h70v115v115h85h85v50v50h-85h-85v60v60h110h110v55v55h-180h-180V1550z"/>
	<path fill="#005B41" d="M3995.998,1763.999c-20-20-20-32.998-0.996-41.001c17.998-5.996,55,23.003,55,44.004
		C4050.002,1785,4015.002,1783.999,3995.998,1763.999z"/>
	<path fill="#005B41" d="M3163,1745c-42.998-17.998-41.006-28.999,7.002-48.999c50-20,62.998-20,100-1.001
		c38.994,20,37.998,32.998-5,51.001C3223,1762.998,3203.996,1762.998,3163,1745z"/>
	<path fill="#005B41" d="M2870.002,1741.001c0-5,7.002-13.999,15-21.001c12.002-10,18.994-10,27.998-1.001
		s9.004,13.999-2.998,21.001C2890.998,1752.002,2870.002,1752.998,2870.002,1741.001z"/>
	<path fill="#005B41" d="M3060.998,1717.998c-5-12.998-7.002-23.999-5.996-25.996c6.992-8.003,45,20,45,32.998
		C3100.002,1747.998,3070.002,1742.002,3060.998,1717.998z"/>
	<path fill="#005B41" d="M3315.998,1713.999c-9.004-23.999-7.002-76.997,4.004-93.999c6.992-11.001,10,2.998,10,47.998
		C3330.002,1731.001,3326.994,1742.002,3315.998,1713.999z"/>
	<path fill="#005B41" d="M4775.002,1706.001c-105-48.999-152.002-208.999-95-328.999c35.996-75,92.998-110,176.992-109.004
		c46.006,1.006,75,12.998,111.006,45l22.002,20v-30.996V1270h65h65v225v225h-65h-65v-31.001v-30l-36.006,27.002
		C4910.998,1718.999,4823.996,1728.999,4775.002,1706.001z M4955.002,1576.001c47.998-48.003,45-126.997-6.006-170.005
		c-42.998-36.992-82.998-33.994-125,8.008c-28.994,28.994-33.994,40.996-33.994,78.994c0,67.002,35.996,107.002,95.996,107.002
		C4920.002,1600,4936.994,1593.999,4955.002,1576.001z"/>
	<path fill="#005B41" d="M5220.002,1495v-225h70h70v129.004c0,155.996,6.992,170.996,87.998,178.994l52.002,5v68.003
		c0,55-3.008,68.999-15,68.999c-27.002,0-79.004-26.001-100-50l-20-22.002l-5,33.003l-5,33.999l-67.002,2.998l-67.998,3.003V1495z"
		/>
	<path fill="#005B41" d="M5655.002,1706.001c-105-48.999-152.002-208.999-95-328.999c35.996-75,92.998-110,176.992-109.004
		c46.006,1.006,75,12.998,111.006,45l22.002,20v-30.996V1270h65h65v225v225h-65h-65v-31.001v-30l-36.006,27.002
		C5790.998,1718.999,5703.996,1728.999,5655.002,1706.001z M5835.002,1576.001c47.998-48.003,45-126.997-6.006-170.005
		c-42.998-36.992-82.998-33.994-125,8.008c-28.994,28.994-33.994,40.996-33.994,78.994c0,67.002,35.996,107.002,95.996,107.002
		C5800.002,1600,5816.994,1593.999,5835.002,1576.001z"/>
	<path fill="#005B41" d="M6073.996,1702.998c2.998-10,39.004-110,79.004-222.998l72.998-205h84.004h83.994l72.998,205
		c40,112.998,76.006,212.998,79.004,222.998c5,15-2.998,17.002-65,17.002h-70l-30.996-102.002
		c-17.002-56.997-39.004-127.002-48.008-155c-7.998-28.994-18.994-52.998-21.992-52.998c-4.004,0-12.002,19.004-19.004,42.998
		c-7.002,22.998-27.998,93.003-47.002,155l-35,112.002h-70C6076.994,1720,6068.996,1717.998,6073.996,1702.998z"/>
	<path fill="#005B41" d="M6725.002,1707.998c-86.006-30-139.004-110.996-138.008-212.998c0-65,21.006-125,56.006-164.004
		c55.996-60.996,187.002-81.992,265-41.992c47.002,23.994,102.002,83.994,102.002,110.996c0,17.998-7.002,20-63.008,20
		c-50.996,0-67.998-4.004-80.996-19.004c-45.996-50.996-145-21.992-145.996,42.002c0,15,13.994,17.002,155,17.002h155v37.998
		c0,96.001-64.004,188.003-147.002,211.001C6835.998,1722.002,6765.002,1722.002,6725.002,1707.998z M6870.002,1590
		c40-40,27.998-50-65-50c-47.002,0-85,4.004-85,8.999c0,3.999,8.994,20,20.996,35C6768,1617.998,6838.996,1621.001,6870.002,1590z"
		/>
	<path fill="#005B41" d="M7940.002,1495v-225h70h70L8078,1492.998L8075.002,1715l-67.002,2.998l-67.998,3.003V1495z"/>
	<path fill="#005B41" d="M8295.002,1707.998c-86.006-30-139.004-110.996-138.008-212.998c0-140.996,85-227.002,223.008-225.996
		c92.998,0,160.996,43.994,195,123.994l15,37.002h-71.006c-63.994,0-72.998-2.998-90.996-25
		c-27.002-34.004-76.006-34.004-109.004,0.996c-20,22.002-23.994,36.006-23.994,91.006c0,58.999,2.998,66.997,27.998,88.999
		c35.996,31.001,70.996,31.001,102.998-1.001c22.002-22.002,34.004-25,95-25h69.004l-15,37.998
		C8535.002,1696.001,8405.998,1747.002,8295.002,1707.998z"/>
	<path fill="#005B41" d="M8661.994,1546.001c3.008-193.999,7.002-205.005,79.004-253.999c45-31.006,137.998-27.998,187.002,7.002
		l32.002,21.992v-25c0-25,1.992-25.996,70-25.996h70v225v226.001l-67.002-3.003l-67.998-2.998l-3.008-145
		c-1.992-132.002-3.994-145.996-23.994-167.002c-30-32.002-90-32.002-122.998,2.002c-24.004,22.998-25,27.998-25,170v145h-66.006
		h-65L8661.994,1546.001z"/>
	<path fill="#005B41" d="M9273,1701.001c-70-32.002-101.006-108.003-69.004-168.999c20-39.004,22.998-41.006,131.006-77.002
		c72.998-24.004,90.996-34.004,92.998-52.002c7.002-48.994-87.998-55-110-7.002c-10,22.002-17.002,24.004-75,24.004
		c-72.998,0-80-12.002-40-70.996c68.994-105,292.002-108.008,340.996-5c42.002,88.994,0,150.996-127.998,188.994
		c-80.996,23.003-104.004,41.001-92.998,71.001c12.002,31.001,107.002,13.999,107.002-18.999c0-12.002,15-15,65.996-15
		c62.998,0,65,1.001,59.004,22.998c-25,81.001-91.006,127.002-185,127.002C9338,1720,9298,1712.002,9273,1701.001z"/>
	<path fill="#005B41" d="M3960.002,1695c6.992-7.998,21.992-15,33.994-15c21.006,1.001,21.006,1.001,2.002,15
		C3968.996,1716.001,3943,1715,3960.002,1695z"/>
	<path fill="#005B41" d="M2868,1687.998c-20.996-5.996-37.998-13.999-37.998-17.998c0-12.998,52.998-47.998,83.994-56.001
		c28.008-6.997,116.006,20,116.006,36.001c0,8.999-92.998,50-112.002,48.999C2910.998,1697.998,2888,1692.998,2868,1687.998z"/>
	<path fill="#005B41" d="M4031.994,1667.998c5-15,28.008-17.998,29.004-2.998c0,6.001-7.002,12.002-17.002,12.998
		C4033.996,1681.001,4028.996,1677.002,4031.994,1667.998z"/>
	<path fill="#005B41" d="M2827.004,1602.998c-9.004-8.999,11.992-32.998,28.994-32.998s17.998,12.002,2.002,27.998
		C2843.996,1612.002,2835.998,1612.998,2827.004,1602.998z"/>
	<path fill="#005B41" d="M3765.002,1602.998c-11.006-2.998-31.006-10-44.004-15c-24.004-8.999-22.998-10,30-35.996
		c40.996-21.006,67.998-27.002,112.002-26.006c65.996,1.006,75.996,7.002,55.996,30.005
		C3888,1592.998,3815.002,1615,3765.002,1602.998z"/>
	<path fill="#005B41" d="M3085.002,1562.002c-41.006-26.006-54.004-44.004-70-97.002c-16.006-52.002-10-55,45-24.004
		c40.996,23.008,63.994,57.002,72.998,107.002C3140.998,1586.001,3130.002,1588.999,3085.002,1562.002z"/>
	<path fill="#005B41" d="M3980.002,1550c-12.002-7.002-12.002-12.002-2.002-22.002c8.994-8.994,17.002-10,30-2.002
		c8.994,6.006,15.996,15,15,20.005C4020.002,1558.999,3996.994,1561.001,3980.002,1550z"/>
	<path fill="#005B41" d="M3176.994,1529.004c-27.998-16.006-48.994-68.008-42.998-103.008c6.006-33.994,32.002-75.996,45-75.996
		c14.004,0,31.006,82.002,29.004,137.002C3205.002,1544.004,3203.996,1545,3176.994,1529.004z"/>
	<path fill="#005B41" d="M3800.002,1505.996c0-16.992,26.992-75.996,42.998-93.994c18.994-20,92.998-49.004,102.998-40
		c7.998,8.994-40,90-60.996,103.994C3863.996,1490,3800.002,1512.002,3800.002,1505.996z"/>
	<path fill="#005B41" d="M3940.002,1495.996c0-16.992,55.996-65.996,75-65.996c6.992,0,20,2.998,28.994,5.996
		c27.002,10-5.996,60-45,68.008C3951.994,1512.998,3940.002,1512.002,3940.002,1495.996z"/>
</g>
</svg>
